<mxfile host="processflow.sharehoo.cn" modified="2021-05-03T03:30:46.483Z" agent="5.0 (Windows NT 10.0; Win64; x64) AppleWebKit/537.36 (KHTML, like Gecko) Chrome/90.0.4430.93 Safari/537.36 Edg/90.0.818.51" etag="u5lzHtBCdI1uwfdmcvTn" version="14.3.2" type="github">
  <diagram id="W1qJ5S1aCYu_Js1Z4FUn" name="第 1 页">
    <mxGraphModel dx="1422" dy="762" grid="1" gridSize="10" guides="1" tooltips="1" connect="1" arrows="1" fold="1" page="1" pageScale="1" pageWidth="6500" pageHeight="4500" math="0" shadow="0">
      <root>
        <mxCell id="0" />
        <mxCell id="1" parent="0" />
        <mxCell id="O_CyK5du5Dp2RkUTYjch-45" value="" style="rounded=1;whiteSpace=wrap;html=1;fontSize=13;align=left;arcSize=4;" vertex="1" parent="1">
          <mxGeometry x="730" y="192" width="790" height="460" as="geometry" />
        </mxCell>
        <mxCell id="O_CyK5du5Dp2RkUTYjch-1" value="" style="shape=table;html=1;whiteSpace=wrap;startSize=0;container=1;collapsible=0;childLayout=tableLayout;fontSize=14;" vertex="1" parent="1">
          <mxGeometry x="510" y="600" width="180" height="120" as="geometry" />
        </mxCell>
        <mxCell id="O_CyK5du5Dp2RkUTYjch-16" style="shape=partialRectangle;html=1;whiteSpace=wrap;collapsible=0;dropTarget=0;pointerEvents=0;fillColor=none;top=0;left=0;bottom=0;right=0;points=[[0,0.5],[1,0.5]];portConstraint=eastwest;" vertex="1" parent="O_CyK5du5Dp2RkUTYjch-1">
          <mxGeometry width="180" height="40" as="geometry" />
        </mxCell>
        <mxCell id="O_CyK5du5Dp2RkUTYjch-17" value="&lt;font style=&quot;font-size: 15px&quot;&gt;id&lt;/font&gt;" style="shape=partialRectangle;html=1;whiteSpace=wrap;connectable=0;fillColor=none;top=0;left=0;bottom=0;right=0;overflow=hidden;" vertex="1" parent="O_CyK5du5Dp2RkUTYjch-16">
          <mxGeometry width="60" height="40" as="geometry" />
        </mxCell>
        <mxCell id="O_CyK5du5Dp2RkUTYjch-18" value="&lt;font style=&quot;font-size: 15px&quot;&gt;name&lt;/font&gt;" style="shape=partialRectangle;html=1;whiteSpace=wrap;connectable=0;fillColor=none;top=0;left=0;bottom=0;right=0;overflow=hidden;" vertex="1" parent="O_CyK5du5Dp2RkUTYjch-16">
          <mxGeometry x="60" width="60" height="40" as="geometry" />
        </mxCell>
        <mxCell id="O_CyK5du5Dp2RkUTYjch-22" value="&lt;font style=&quot;font-size: 15px&quot;&gt;age&lt;/font&gt;" style="shape=partialRectangle;html=1;whiteSpace=wrap;connectable=0;fillColor=none;top=0;left=0;bottom=0;right=0;overflow=hidden;" vertex="1" parent="O_CyK5du5Dp2RkUTYjch-16">
          <mxGeometry x="120" width="60" height="40" as="geometry" />
        </mxCell>
        <mxCell id="O_CyK5du5Dp2RkUTYjch-2" value="" style="shape=partialRectangle;html=1;whiteSpace=wrap;collapsible=0;dropTarget=0;pointerEvents=0;fillColor=none;top=0;left=0;bottom=0;right=0;points=[[0,0.5],[1,0.5]];portConstraint=eastwest;" vertex="1" parent="O_CyK5du5Dp2RkUTYjch-1">
          <mxGeometry y="40" width="180" height="40" as="geometry" />
        </mxCell>
        <mxCell id="O_CyK5du5Dp2RkUTYjch-3" value="1" style="shape=partialRectangle;html=1;whiteSpace=wrap;connectable=0;fillColor=none;top=0;left=0;bottom=0;right=0;overflow=hidden;fontSize=13;" vertex="1" parent="O_CyK5du5Dp2RkUTYjch-2">
          <mxGeometry width="60" height="40" as="geometry" />
        </mxCell>
        <mxCell id="O_CyK5du5Dp2RkUTYjch-19" value="&lt;font style=&quot;font-size: 13px&quot;&gt;huyu&lt;/font&gt;" style="shape=partialRectangle;html=1;whiteSpace=wrap;connectable=0;fillColor=none;top=0;left=0;bottom=0;right=0;overflow=hidden;" vertex="1" parent="O_CyK5du5Dp2RkUTYjch-2">
          <mxGeometry x="60" width="60" height="40" as="geometry" />
        </mxCell>
        <mxCell id="O_CyK5du5Dp2RkUTYjch-23" value="&lt;font style=&quot;font-size: 13px&quot;&gt;10&lt;/font&gt;" style="shape=partialRectangle;html=1;whiteSpace=wrap;connectable=0;fillColor=none;top=0;left=0;bottom=0;right=0;overflow=hidden;" vertex="1" parent="O_CyK5du5Dp2RkUTYjch-2">
          <mxGeometry x="120" width="60" height="40" as="geometry" />
        </mxCell>
        <mxCell id="O_CyK5du5Dp2RkUTYjch-6" value="" style="shape=partialRectangle;html=1;whiteSpace=wrap;collapsible=0;dropTarget=0;pointerEvents=0;fillColor=none;top=0;left=0;bottom=0;right=0;points=[[0,0.5],[1,0.5]];portConstraint=eastwest;" vertex="1" parent="O_CyK5du5Dp2RkUTYjch-1">
          <mxGeometry y="80" width="180" height="40" as="geometry" />
        </mxCell>
        <mxCell id="O_CyK5du5Dp2RkUTYjch-7" value="&lt;font style=&quot;font-size: 13px&quot;&gt;2&lt;/font&gt;" style="shape=partialRectangle;html=1;whiteSpace=wrap;connectable=0;fillColor=none;top=0;left=0;bottom=0;right=0;overflow=hidden;" vertex="1" parent="O_CyK5du5Dp2RkUTYjch-6">
          <mxGeometry width="60" height="40" as="geometry" />
        </mxCell>
        <mxCell id="O_CyK5du5Dp2RkUTYjch-20" value="&lt;font style=&quot;font-size: 13px&quot;&gt;optr&lt;/font&gt;" style="shape=partialRectangle;html=1;whiteSpace=wrap;connectable=0;fillColor=none;top=0;left=0;bottom=0;right=0;overflow=hidden;" vertex="1" parent="O_CyK5du5Dp2RkUTYjch-6">
          <mxGeometry x="60" width="60" height="40" as="geometry" />
        </mxCell>
        <mxCell id="O_CyK5du5Dp2RkUTYjch-24" value="&lt;font style=&quot;font-size: 13px&quot;&gt;30&lt;/font&gt;" style="shape=partialRectangle;html=1;whiteSpace=wrap;connectable=0;fillColor=none;top=0;left=0;bottom=0;right=0;overflow=hidden;" vertex="1" parent="O_CyK5du5Dp2RkUTYjch-6">
          <mxGeometry x="120" width="60" height="40" as="geometry" />
        </mxCell>
        <mxCell id="O_CyK5du5Dp2RkUTYjch-35" value="1、事务开始&lt;br style=&quot;font-size: 16px;&quot;&gt;&lt;font color=&quot;#ffffff&quot; style=&quot;font-size: 16px;&quot;&gt;&lt;span style=&quot;font-family: &amp;quot;microsoft yahei&amp;quot; , &amp;quot;helvetica&amp;quot; , &amp;quot;arial&amp;quot; , &amp;quot;lucida grande&amp;quot; , &amp;quot;tahoma&amp;quot; , sans-serif ; font-size: 16px ; text-align: justify ; text-indent: 32px&quot;&gt;2、将&amp;nbsp;&lt;/span&gt;id=1&lt;span style=&quot;font-family: &amp;quot;microsoft yahei&amp;quot; , &amp;quot;helvetica&amp;quot; , &amp;quot;arial&amp;quot; , &amp;quot;lucida grande&amp;quot; , &amp;quot;tahoma&amp;quot; , sans-serif ; font-size: 16px ; text-align: justify ; text-indent: 32px&quot;&gt;&amp;nbsp;的行数据记录到 undo log buffer&lt;/span&gt;&lt;br style=&quot;box-sizing: border-box ; font-family: &amp;quot;microsoft yahei&amp;quot; , &amp;quot;helvetica&amp;quot; , &amp;quot;arial&amp;quot; , &amp;quot;lucida grande&amp;quot; , &amp;quot;tahoma&amp;quot; , sans-serif ; font-size: 16px ; text-align: justify ; text-indent: 32px&quot;&gt;&lt;span style=&quot;font-family: &amp;quot;microsoft yahei&amp;quot; , &amp;quot;helvetica&amp;quot; , &amp;quot;arial&amp;quot; , &amp;quot;lucida grande&amp;quot; , &amp;quot;tahoma&amp;quot; , sans-serif ; font-size: 16px ; text-align: justify ; text-indent: 32px&quot;&gt;3、修改&amp;nbsp;&lt;/span&gt;id=1&lt;span style=&quot;font-family: &amp;quot;microsoft yahei&amp;quot; , &amp;quot;helvetica&amp;quot; , &amp;quot;arial&amp;quot; , &amp;quot;lucida grande&amp;quot; , &amp;quot;tahoma&amp;quot; , sans-serif ; font-size: 16px ; text-align: justify ; text-indent: 32px&quot;&gt;&amp;nbsp;的行数据&amp;nbsp;&lt;/span&gt;name&lt;span style=&quot;font-family: &amp;quot;microsoft yahei&amp;quot; , &amp;quot;helvetica&amp;quot; , &amp;quot;arial&amp;quot; , &amp;quot;lucida grande&amp;quot; , &amp;quot;tahoma&amp;quot; , sans-serif ; font-size: 16px ; text-align: justify ; text-indent: 32px&quot;&gt;&amp;nbsp;为&amp;nbsp;&lt;/span&gt;kawaii&lt;br style=&quot;box-sizing: border-box ; font-family: &amp;quot;microsoft yahei&amp;quot; , &amp;quot;helvetica&amp;quot; , &amp;quot;arial&amp;quot; , &amp;quot;lucida grande&amp;quot; , &amp;quot;tahoma&amp;quot; , sans-serif ; font-size: 16px ; text-align: justify ; text-indent: 32px&quot;&gt;&lt;span style=&quot;font-family: &amp;quot;microsoft yahei&amp;quot; , &amp;quot;helvetica&amp;quot; , &amp;quot;arial&amp;quot; , &amp;quot;lucida grande&amp;quot; , &amp;quot;tahoma&amp;quot; , sans-serif ; font-size: 16px ; text-align: justify ; text-indent: 32px&quot;&gt;4、undo log buffer 写入磁盘为 undo log file&lt;/span&gt;&lt;br style=&quot;box-sizing: border-box ; font-family: &amp;quot;microsoft yahei&amp;quot; , &amp;quot;helvetica&amp;quot; , &amp;quot;arial&amp;quot; , &amp;quot;lucida grande&amp;quot; , &amp;quot;tahoma&amp;quot; , sans-serif ; font-size: 16px ; text-align: justify ; text-indent: 32px&quot;&gt;&lt;span style=&quot;font-family: &amp;quot;microsoft yahei&amp;quot; , &amp;quot;helvetica&amp;quot; , &amp;quot;arial&amp;quot; , &amp;quot;lucida grande&amp;quot; , &amp;quot;tahoma&amp;quot; , sans-serif ; font-size: 16px ; text-align: justify ; text-indent: 32px&quot;&gt;5、将数据写入磁盘&lt;/span&gt;&lt;br style=&quot;box-sizing: border-box ; font-family: &amp;quot;microsoft yahei&amp;quot; , &amp;quot;helvetica&amp;quot; , &amp;quot;arial&amp;quot; , &amp;quot;lucida grande&amp;quot; , &amp;quot;tahoma&amp;quot; , sans-serif ; font-size: 16px ; text-align: justify ; text-indent: 32px&quot;&gt;&lt;span style=&quot;font-family: &amp;quot;microsoft yahei&amp;quot; , &amp;quot;helvetica&amp;quot; , &amp;quot;arial&amp;quot; , &amp;quot;lucida grande&amp;quot; , &amp;quot;tahoma&amp;quot; , sans-serif ; font-size: 16px ; text-align: justify ; text-indent: 32px&quot;&gt;6、事务提交&lt;/span&gt;&lt;/font&gt;" style="text;html=1;strokeColor=#432D57;fillColor=#76608a;align=left;verticalAlign=middle;whiteSpace=wrap;rounded=0;fontSize=16;fontColor=#ffffff;spacingRight=0;spacing=2;spacingLeft=16;" vertex="1" parent="1">
          <mxGeometry x="770" y="270" width="370" height="180" as="geometry" />
        </mxCell>
        <mxCell id="O_CyK5du5Dp2RkUTYjch-36" value="&lt;div&gt;将 id=1 的 name 修改为 kawaii，流程如下&lt;/div&gt;" style="text;html=1;strokeColor=#006EAF;fillColor=#1ba1e2;align=center;verticalAlign=middle;whiteSpace=wrap;rounded=0;fontSize=15;fontColor=#ffffff;labelPosition=center;verticalLabelPosition=middle;" vertex="1" parent="1">
          <mxGeometry x="770" y="230" width="370" height="40" as="geometry" />
        </mxCell>
        <mxCell id="O_CyK5du5Dp2RkUTYjch-37" value="" style="endArrow=classic;html=1;fontSize=13;flowAnimation=0;fillColor=#a20025;strokeColor=#FF0000;strokeWidth=2;" edge="1" parent="1">
          <mxGeometry width="50" height="50" relative="1" as="geometry">
            <mxPoint x="1230" y="300" as="sourcePoint" />
            <mxPoint x="1070" y="350" as="targetPoint" />
          </mxGeometry>
        </mxCell>
        <mxCell id="O_CyK5du5Dp2RkUTYjch-38" value="这里还是在内存中修改的" style="text;html=1;strokeColor=#005700;fillColor=#008a00;align=center;verticalAlign=middle;whiteSpace=wrap;rounded=0;fontSize=13;fontColor=#ffffff;" vertex="1" parent="1">
          <mxGeometry x="1220" y="290" width="180" height="20" as="geometry" />
        </mxCell>
        <mxCell id="O_CyK5du5Dp2RkUTYjch-40" style="edgeStyle=orthogonalEdgeStyle;rounded=0;orthogonalLoop=1;jettySize=auto;html=1;exitX=0;exitY=0.5;exitDx=0;exitDy=0;entryX=1;entryY=0.75;entryDx=0;entryDy=0;strokeColor=#FF0000;strokeWidth=2;fontSize=13;" edge="1" parent="1" source="O_CyK5du5Dp2RkUTYjch-39" target="O_CyK5du5Dp2RkUTYjch-35">
          <mxGeometry relative="1" as="geometry" />
        </mxCell>
        <mxCell id="O_CyK5du5Dp2RkUTYjch-39" value="&lt;div&gt;步骤 1 - 3 都是在内存中完成，第 4 步之前包括第 4 步如果出现问题，undo log 与数据都未写入磁盘，可以直接回滚，第 4 步之后出现问题，此时 undo log 已写入磁盘，利用 undo log 进行回滚。&lt;/div&gt;&lt;div&gt;&lt;br&gt;&lt;/div&gt;" style="text;html=1;strokeColor=#314354;fillColor=#647687;align=left;verticalAlign=middle;whiteSpace=wrap;rounded=0;fontSize=15;spacingLeft=4;fontColor=#ffffff;spacingTop=11;" vertex="1" parent="1">
          <mxGeometry x="1190" y="330" width="300" height="110" as="geometry" />
        </mxCell>
        <mxCell id="O_CyK5du5Dp2RkUTYjch-41" value="&lt;div&gt;对于insert操作，undo 日志记录新数据的 PK(ROW_ID)，回滚时直接删除&lt;/div&gt;&lt;div&gt;对于delete/update操作，undo 日志记录旧数据，回滚时直接恢复&lt;/div&gt;&lt;div&gt;&lt;br&gt;&lt;/div&gt;" style="text;html=1;strokeColor=#6D1F00;fillColor=#a0522d;align=left;verticalAlign=middle;whiteSpace=wrap;rounded=0;fontSize=13;spacingTop=14;spacingLeft=13;fontColor=#ffffff;" vertex="1" parent="1">
          <mxGeometry x="770" y="470" width="450" height="50" as="geometry" />
        </mxCell>
        <mxCell id="O_CyK5du5Dp2RkUTYjch-44" value="" style="edgeStyle=orthogonalEdgeStyle;rounded=0;orthogonalLoop=1;jettySize=auto;html=1;strokeColor=#FF0000;strokeWidth=2;fontSize=13;" edge="1" parent="1" source="O_CyK5du5Dp2RkUTYjch-42" target="O_CyK5du5Dp2RkUTYjch-43">
          <mxGeometry relative="1" as="geometry" />
        </mxCell>
        <mxCell id="O_CyK5du5Dp2RkUTYjch-42" value="&lt;div&gt;存在问题&lt;/div&gt;" style="text;html=1;strokeColor=#B20000;fillColor=#e51400;align=center;verticalAlign=middle;whiteSpace=wrap;rounded=0;fontSize=15;fontColor=#ffffff;spacingLeft=3;" vertex="1" parent="1">
          <mxGeometry x="770" y="560" width="80" height="40" as="geometry" />
        </mxCell>
        <mxCell id="O_CyK5du5Dp2RkUTYjch-43" value="&lt;div&gt;事务提交时需要将内存中的数据同步写入磁盘，数据写入磁盘属于随机IO，性能较差，会极大影响数据库的吞吐量。&lt;/div&gt;" style="text;html=1;strokeColor=#3A5431;fillColor=#6d8764;align=left;verticalAlign=middle;whiteSpace=wrap;rounded=0;fontSize=15;spacingLeft=3;fontColor=#ffffff;" vertex="1" parent="1">
          <mxGeometry x="930" y="545" width="420" height="70" as="geometry" />
        </mxCell>
        <mxCell id="O_CyK5du5Dp2RkUTYjch-47" value="" style="rounded=1;whiteSpace=wrap;html=1;fontSize=13;align=left;arcSize=4;" vertex="1" parent="1">
          <mxGeometry x="730" y="680" width="790" height="460" as="geometry" />
        </mxCell>
        <mxCell id="O_CyK5du5Dp2RkUTYjch-48" value="&lt;div style=&quot;font-size: 16px;&quot;&gt;1、事务开始&lt;/div&gt;&lt;div style=&quot;font-size: 16px;&quot;&gt;2、将 id=1 的行数据记录到 undo log buffer&lt;/div&gt;&lt;div style=&quot;font-size: 16px;&quot;&gt;3、修改 id=1 的行数据 name 为 kawaii&lt;/div&gt;&lt;div style=&quot;font-size: 16px;&quot;&gt;4、记录修改日志到 redo log buffer&lt;/div&gt;&lt;div style=&quot;font-size: 16px;&quot;&gt;5、undo log buffer 写入磁盘为 undo log file&lt;/div&gt;&lt;div style=&quot;font-size: 16px;&quot;&gt;6、redo log buffer 写入磁盘为 redo log file&lt;/div&gt;&lt;div style=&quot;font-size: 16px;&quot;&gt;7、事务提交&lt;/div&gt;" style="text;html=1;strokeColor=#432D57;fillColor=#76608a;align=left;verticalAlign=middle;whiteSpace=wrap;rounded=0;fontSize=16;fontColor=#ffffff;spacingRight=0;spacing=2;spacingLeft=16;" vertex="1" parent="1">
          <mxGeometry x="770" y="830" width="370" height="180" as="geometry" />
        </mxCell>
        <mxCell id="O_CyK5du5Dp2RkUTYjch-49" value="&lt;div&gt;将 id=1 的 name 修改为 kawaii，流程如下&lt;/div&gt;" style="text;html=1;strokeColor=#006EAF;fillColor=#1ba1e2;align=center;verticalAlign=middle;whiteSpace=wrap;rounded=0;fontSize=15;fontColor=#ffffff;labelPosition=center;verticalLabelPosition=middle;" vertex="1" parent="1">
          <mxGeometry x="770" y="790" width="370" height="40" as="geometry" />
        </mxCell>
        <mxCell id="O_CyK5du5Dp2RkUTYjch-52" value="" style="edgeStyle=orthogonalEdgeStyle;rounded=0;orthogonalLoop=1;jettySize=auto;html=1;strokeColor=#FF0000;strokeWidth=2;fontSize=13;" edge="1" parent="1" source="O_CyK5du5Dp2RkUTYjch-50" target="O_CyK5du5Dp2RkUTYjch-51">
          <mxGeometry relative="1" as="geometry" />
        </mxCell>
        <mxCell id="O_CyK5du5Dp2RkUTYjch-50" value="&lt;div&gt;优化方案&lt;/div&gt;" style="text;html=1;strokeColor=#006EAF;fillColor=#1ba1e2;align=center;verticalAlign=middle;whiteSpace=wrap;rounded=0;fontSize=15;fontColor=#ffffff;" vertex="1" parent="1">
          <mxGeometry x="770" y="720" width="90" height="40" as="geometry" />
        </mxCell>
        <mxCell id="O_CyK5du5Dp2RkUTYjch-51" value="&lt;div&gt;将修改行为先写到 Redo 日志（顺序写），再定期将数据刷到磁盘上，这样能极大提高性能。&lt;/div&gt;" style="text;html=1;strokeColor=#2D7600;fillColor=#60a917;align=left;verticalAlign=middle;whiteSpace=wrap;rounded=0;fontSize=15;fontColor=#ffffff;spacingLeft=8;" vertex="1" parent="1">
          <mxGeometry x="940" y="707.5" width="460" height="65" as="geometry" />
        </mxCell>
        <mxCell id="O_CyK5du5Dp2RkUTYjch-54" value="" style="edgeStyle=orthogonalEdgeStyle;rounded=0;orthogonalLoop=1;jettySize=auto;html=1;strokeColor=#FF0000;strokeWidth=2;fontSize=16;" edge="1" parent="1" source="O_CyK5du5Dp2RkUTYjch-53" target="O_CyK5du5Dp2RkUTYjch-48">
          <mxGeometry relative="1" as="geometry" />
        </mxCell>
        <mxCell id="O_CyK5du5Dp2RkUTYjch-53" value="&lt;div&gt;&lt;div&gt;都是写磁盘，写 Redo 日志文件与直接写数据库文件有什么区别？&lt;/div&gt;&lt;div&gt;写 Redo 日志文件是顺序IO，而写数据库文件是随机IO，性能差别大。&lt;/div&gt;&lt;div&gt;Redo 日志文件写入成功后，数据库会另起线程将 Redo 日志写入数据库数据文件，实现持久化。&lt;/div&gt;&lt;/div&gt;&lt;div&gt;&lt;br&gt;&lt;/div&gt;" style="text;html=1;strokeColor=#314354;fillColor=#647687;align=left;verticalAlign=middle;whiteSpace=wrap;rounded=0;fontSize=15;spacingLeft=4;fontColor=#ffffff;spacingTop=11;" vertex="1" parent="1">
          <mxGeometry x="1180" y="870" width="320" height="145" as="geometry" />
        </mxCell>
        <mxCell id="O_CyK5du5Dp2RkUTYjch-55" value="&lt;div&gt;Undo 日志存储的是历史数据快照，Redo 日志则存储最新数据&lt;/div&gt;" style="text;html=1;strokeColor=#6D1F00;fillColor=#a0522d;align=left;verticalAlign=middle;whiteSpace=wrap;rounded=0;fontSize=16;fontColor=#ffffff;" vertex="1" parent="1">
          <mxGeometry x="765" y="1060" width="460" height="40" as="geometry" />
        </mxCell>
      </root>
    </mxGraphModel>
  </diagram>
</mxfile>
